<svg xmlns="http://www.w3.org/2000/svg" viewBox="0 0 200 200" width="200" height="200">
  <!-- Center circle -->
  <circle cx="100" cy="100" r="10" fill="#D2691E" fill-opacity="0.4" />
  
  <!-- Inner petals -->
  <g fill="#D2691E" fill-opacity="0.3" stroke="#D2691E" stroke-opacity="0.4" stroke-width="0.5">
    <!-- Inner petal 1 -->
    <path d="M100,85 Q110,70 100,55 Q90,70 100,85" />
    <!-- Inner petal 2 -->
    <path d="M115,100 Q130,90 145,100 Q130,110 115,100" />
    <!-- Inner petal 3 -->
    <path d="M100,115 Q110,130 100,145 Q90,130 100,115" />
    <!-- Inner petal 4 -->
    <path d="M85,100 Q70,90 55,100 Q70,110 85,100" />
    <!-- Inner petal 5 (diagonal) -->
    <path d="M110,90 Q125,75 140,60 Q115,75 110,90" />
    <!-- Inner petal 6 (diagonal) -->
    <path d="M110,110 Q125,125 140,140 Q115,125 110,110" />
    <!-- Inner petal 7 (diagonal) -->
    <path d="M90,110 Q75,125 60,140 Q85,125 90,110" />
    <!-- Inner petal 8 (diagonal) -->
    <path d="M90,90 Q75,75 60,60 Q85,75 90,90" />
  </g>
  
  <!-- Outer petals -->
  <g fill="#D2691E" fill-opacity="0.25" stroke="#D2691E" stroke-opacity="0.3" stroke-width="0.5">
    <!-- Outer petal 1 -->
    <path d="M100,85 Q115,55 100,25 Q85,55 100,85" />
    <!-- Outer petal 2 -->
    <path d="M115,100 Q145,85 175,100 Q145,115 115,100" />
    <!-- Outer petal 3 -->
    <path d="M100,115 Q115,145 100,175 Q85,145 100,115" />
    <!-- Outer petal 4 -->
    <path d="M85,100 Q55,85 25,100 Q55,115 85,100" />
    <!-- Outer petal 5 (diagonal) -->
    <path d="M110,90 Q135,65 160,40 Q125,75 110,90" />
    <!-- Outer petal 6 (diagonal) -->
    <path d="M110,110 Q135,135 160,160 Q125,125 110,110" />
    <!-- Outer petal 7 (diagonal) -->
    <path d="M90,110 Q65,135 40,160 Q75,125 90,110" />
    <!-- Outer petal 8 (diagonal) -->
    <path d="M90,90 Q65,65 40,40 Q75,75 90,90" />
  </g>
</svg> 