<svg xmlns="http://www.w3.org/2000/svg" viewBox="0 0 200 200" width="200" height="200">
  <!-- Center circle -->
  <circle cx="100" cy="100" r="15" fill="#D2691E" fill-opacity="0.4" />
  
  <!-- Inner ring -->
  <circle cx="100" cy="100" r="30" fill="none" stroke="#D2691E" stroke-opacity="0.35" stroke-width="1.5" />
  
  <!-- Middle ring with patterns -->
  <circle cx="100" cy="100" r="50" fill="none" stroke="#D2691E" stroke-opacity="0.3" stroke-width="1" />
  
  <!-- Decorative elements on middle ring -->
  <g stroke="#D2691E" stroke-opacity="0.35" fill="none">
    <!-- 8 decorative elements evenly spaced around the middle ring -->
    <path d="M100,50 Q110,70 100,80 Q90,70 100,50" />
    <path d="M150,100 Q130,110 120,100 Q130,90 150,100" />
    <path d="M100,150 Q90,130 100,120 Q110,130 100,150" />
    <path d="M50,100 Q70,90 80,100 Q70,110 50,100" />
    
    <!-- Diagonal elements -->
    <path d="M135.35,64.65 Q125,75 115.35,85.35 Q105,75 135.35,64.65" />
    <path d="M135.35,135.35 Q125,125 115.35,114.65 Q105,125 135.35,135.35" />
    <path d="M64.65,135.35 Q75,125 85.35,114.65 Q95,125 64.65,135.35" />
    <path d="M64.65,64.65 Q75,75 85.35,85.35 Q95,75 64.65,64.65" />
  </g>
  
  <!-- Outer ring -->
  <circle cx="100" cy="100" r="70" fill="none" stroke="#D2691E" stroke-opacity="0.25" stroke-width="1" />
  
  <!-- Outermost decorative elements -->
  <g stroke="#D2691E" stroke-opacity="0.2" fill="none">
    <path d="M100,30 Q115,50 100,70 Q85,50 100,30" />
    <path d="M100,130 Q85,150 100,170 Q115,150 100,130" />
    <path d="M30,100 Q50,115 70,100 Q50,85 30,100" />
    <path d="M130,100 Q150,85 170,100 Q150,115 130,100" />
    
    <!-- Diagonal outer elements -->
    <path d="M58.58,58.58 Q75,75 87.07,87.07 Q75,65 58.58,58.58" />
    <path d="M141.42,58.58 Q125,75 112.93,87.07 Q125,65 141.42,58.58" />
    <path d="M141.42,141.42 Q125,125 112.93,112.93 Q125,135 141.42,141.42" />
    <path d="M58.58,141.42 Q75,125 87.07,112.93 Q75,135 58.58,141.42" />
  </g>
</svg> 